<?xml version="1.0"?>
<svg width="100" height="100" xmlns="http://www.w3.org/2000/svg" xmlns:svg="http://www.w3.org/2000/svg">
 <g class="layer">
  <title>Layer 1</title>
  <g id="svg_1">
   <g fill="none" fill-rule="evenodd" id="iconoVSG">
    <path d="m80,71.2l0,2.8c0,3.3 -2.7,6 -6,6l-48,0c-3.3,0 -6,-2.7 -6,-6l0,-2.8c0,-7.3 8.5,-11.7 16.5,-15.2c0.3,-0.1 0.5,-0.2 0.8,-0.4c0.6,-0.3 1.3,-0.3 1.9,0.1c3.2,2.1 6.9,3.3 10.8,3.3c3.9,0 7.6,-1.2 10.8,-3.2c0.6,-0.4 1.3,-0.4 1.9,-0.1c0.3,0.1 0.5,0.2 0.8,0.4c8,3.4 16.5,7.8 16.5,15.1z" fill="#FFFFFF" id="svg_2"/>
   </g>
  </g>
 </g>
</svg>